<svg width="500" height="500" viewBox="0 0 500 500" fill="none" xmlns="http://www.w3.org/2000/svg">
<path d="M252.444 406.036C354.024 406.036 436.371 331.708 436.371 240.018C436.371 148.329 354.024 74 252.444 74C150.864 74 68.5176 148.329 68.5176 240.018C68.5176 331.708 150.864 406.036 252.444 406.036Z" fill="#8FE3F9"/>
<path d="M252.444 406.036C354.024 406.036 436.371 331.708 436.371 240.018C436.371 148.329 354.024 74 252.444 74C150.864 74 68.5176 148.329 68.5176 240.018C68.5176 331.708 150.864 406.036 252.444 406.036Z" fill="#8FE3F9"/>
<path d="M257.285 402.809C299.313 402.809 338.035 390.467 369.012 369.735L360.542 349.809C342.794 307.942 300.685 280.595 253.977 280.595C207.269 280.595 165.16 307.942 147.412 349.809L140.475 366.266C172.178 389.095 212.916 402.809 257.285 402.809Z" fill="#B2EBF9"/>
<path d="M252.364 226.143L217.192 277.771L243.732 313.104C248.088 318.913 256.881 318.913 261.238 313.104L287.536 277.771L252.364 226.143Z" fill="#A4E0EA"/>
<path d="M252.444 386.675C154.431 386.675 74.4065 317.541 68.8403 230.337C68.5983 233.564 68.5176 236.79 68.5176 240.017C68.5176 331.658 150.881 406.035 252.444 406.035C354.008 406.035 436.371 331.739 436.371 240.017C436.371 236.79 436.291 233.564 436.049 230.337C430.483 317.541 350.377 386.675 252.444 386.675Z" fill="#7AD1E5"/>
<path d="M362.801 353.438C332.065 374.251 293.828 386.674 252.444 386.674C212.11 386.674 174.84 374.977 144.589 355.133L140.556 365.055C172.34 388.61 212.997 402.808 257.365 402.808C297.458 402.808 334.566 391.192 364.817 371.509C366.269 370.54 367.641 369.492 369.093 368.443L362.801 353.438Z" fill="#A4E0EA"/>
<path d="M64 240.582C69.1629 251.15 76.1004 260.992 84.8128 269.785C127.003 311.975 195.492 311.975 237.682 269.785C273.015 234.451 278.743 180.806 255.026 139.503" fill="#7AD1E5"/>
<path d="M435.726 253.167C416.365 282.289 383.291 301.408 345.698 301.408C286.003 301.408 237.601 253.006 237.601 193.31C237.601 166.689 247.201 142.327 263.173 123.45" fill="#7AD1E5"/>
<path d="M252.444 406.036C354.024 406.036 436.371 331.708 436.371 240.018C436.371 148.329 354.024 74 252.444 74C150.864 74 68.5176 148.329 68.5176 240.018C68.5176 331.708 150.864 406.036 252.444 406.036Z" stroke="black" stroke-width="16" stroke-miterlimit="10" stroke-linecap="round" stroke-linejoin="round"/>
<path d="M252.364 203.556L217.192 255.184L252.525 302.215L287.617 255.184L252.364 203.556Z" fill="black"/>
<path d="M252.364 203.556L217.192 255.184L252.525 302.215L287.617 255.184L252.364 203.556Z" stroke="black" stroke-width="16" stroke-miterlimit="10" stroke-linecap="round" stroke-linejoin="round"/>
<path d="M332.227 91.9079C308.026 80.6141 280.518 74.2412 251.557 74.2412C222.597 74.2412 195.088 80.6141 170.887 91.9079V204.926H332.227V91.9079Z" fill="black"/>
<path d="M342.553 103.203L430.241 100.541C417.576 132.244 415.882 179.92 426.933 232.033C412.897 261.719 383.049 282.774 347.958 283.823C298.104 285.355 256.398 246.15 254.946 196.215C253.413 146.361 292.618 104.736 342.553 103.203Z" fill="black"/>
<path d="M342.553 103.203L430.241 100.541C417.576 132.244 415.882 179.92 426.933 232.033C412.897 261.719 383.049 282.774 347.958 283.823C298.104 285.355 256.398 246.15 254.946 196.215C253.413 146.361 292.618 104.736 342.553 103.203Z" stroke="black" stroke-width="16" stroke-miterlimit="10" stroke-linecap="round" stroke-linejoin="round"/>
<path d="M345.699 283.741C395.598 283.741 436.049 243.29 436.049 193.391C436.049 143.492 395.598 103.041 345.699 103.041C295.8 103.041 255.349 143.492 255.349 193.391C255.349 243.29 295.8 283.741 345.699 283.741Z" fill="#F7E8AD"/>
<path d="M345.699 283.741C395.598 283.741 436.049 243.29 436.049 193.391C436.049 143.492 395.598 103.041 345.699 103.041C295.8 103.041 255.349 143.492 255.349 193.391C255.349 243.29 295.8 283.741 345.699 283.741Z" fill="#F7E8AD"/>
<path d="M409.589 129.501C392.245 112.157 369.496 103.364 346.748 103.041C363.85 106.348 380.225 114.577 393.455 127.887C428.708 163.14 428.708 220.335 393.455 255.668C375.547 273.577 351.991 282.37 328.597 282.128C357.073 287.613 387.566 279.304 409.589 257.281C444.842 221.948 444.842 164.753 409.589 129.501Z" fill="#F7D6A1"/>
<path opacity="0.7" d="M372.417 241.648C398.88 215.186 398.727 172.128 372.075 145.476C345.423 118.825 302.366 118.671 275.903 145.134C249.44 171.597 249.593 214.654 276.245 241.306C302.897 267.958 345.955 268.111 372.417 241.648Z" fill="white"/>
<path d="M421.529 150.557C419.028 147.33 414.188 138.456 411.203 135.471C375.708 100.461 318.513 100.783 283.503 136.359C276.565 143.377 270.999 151.283 266.885 159.753C316.658 142.248 371.191 146.442 421.529 150.557Z" fill="#EFCA92"/>
<path d="M345.699 283.741C395.598 283.741 436.049 243.29 436.049 193.391C436.049 143.492 395.598 103.041 345.699 103.041C295.8 103.041 255.349 143.492 255.349 193.391C255.349 243.29 295.8 283.741 345.699 283.741Z" stroke="black" stroke-width="16" stroke-miterlimit="10" stroke-linecap="round" stroke-linejoin="round"/>
<path d="M345.699 283.741C395.598 283.741 436.049 243.29 436.049 193.391C436.049 143.492 395.598 103.041 345.699 103.041C295.8 103.041 255.349 143.492 255.349 193.391C255.349 243.29 295.8 283.741 345.699 283.741Z" stroke="black" stroke-width="16" stroke-miterlimit="10" stroke-linecap="round" stroke-linejoin="round"/>
<path d="M417.737 138.858C415.236 135.631 412.574 132.485 409.589 129.5C374.336 94.2474 317.142 94.2474 281.808 129.5C274.79 136.518 269.224 144.343 265.029 152.733C315.044 135.631 367.399 134.34 417.737 138.858Z" fill="black"/>
<path d="M301.734 234.048C320.446 234.048 335.615 218.879 335.615 200.166C335.615 181.454 320.446 166.285 301.734 166.285C283.022 166.285 267.853 181.454 267.853 200.166C267.853 218.879 283.022 234.048 301.734 234.048Z" fill="black"/>
<path d="M282.534 211.704C288.772 211.704 293.828 206.647 293.828 200.41C293.828 194.173 288.772 189.116 282.534 189.116C276.297 189.116 271.241 194.173 271.241 200.41C271.241 206.647 276.297 211.704 282.534 211.704Z" fill="white"/>
<path d="M161.288 103.204L73.5193 100.542C86.1844 132.245 87.8785 179.921 76.8267 232.034C90.8633 261.72 120.711 282.775 155.802 283.824C205.656 285.356 247.362 246.151 248.815 196.216C250.347 146.362 211.142 104.737 161.288 103.204Z" fill="black"/>
<path d="M161.288 103.204L73.5193 100.542C86.1844 132.245 87.8785 179.921 76.8267 232.034C90.8633 261.72 120.711 282.775 155.802 283.824C205.656 285.356 247.362 246.151 248.815 196.216C250.347 146.362 211.142 104.737 161.288 103.204Z" stroke="black" stroke-width="16" stroke-miterlimit="10" stroke-linecap="round" stroke-linejoin="round"/>
<path d="M158.061 283.743C207.96 283.743 248.411 243.292 248.411 193.393C248.411 143.494 207.96 103.043 158.061 103.043C108.162 103.043 67.7112 143.494 67.7112 193.393C67.7112 243.292 108.162 283.743 158.061 283.743Z" fill="#F7E8AD"/>
<path d="M158.061 283.743C207.96 283.743 248.411 243.292 248.411 193.393C248.411 143.494 207.96 103.043 158.061 103.043C108.162 103.043 67.7112 143.494 67.7112 193.393C67.7112 243.292 108.162 283.743 158.061 283.743Z" fill="#F7E8AD"/>
<path d="M94.1707 129.503C111.515 112.159 134.264 103.366 157.012 103.043C139.91 106.35 123.534 114.579 110.305 127.889C75.052 163.142 75.052 220.337 110.305 255.67C128.213 273.579 151.769 282.372 175.163 282.13C146.687 287.615 116.194 279.306 94.1707 257.283C58.918 221.95 58.918 164.755 94.1707 129.503Z" fill="#F7D6A1"/>
<path opacity="0.7" d="M227.523 241.325C254.175 214.673 254.328 171.615 227.866 145.153C201.403 118.69 158.345 118.843 131.694 145.495C105.042 172.146 104.889 215.204 131.351 241.667C157.814 268.129 200.872 267.976 227.523 241.325Z" fill="white"/>
<path opacity="0.89" d="M82.3123 150.557C84.813 147.33 89.6532 138.456 92.638 135.471C128.133 100.461 185.327 100.783 220.338 136.359C227.276 143.377 232.842 151.283 236.956 159.753C187.102 142.248 132.569 146.442 82.3123 150.557Z" fill="#EFCA92"/>
<path d="M158.061 283.743C207.96 283.743 248.411 243.292 248.411 193.393C248.411 143.494 207.96 103.043 158.061 103.043C108.162 103.043 67.7112 143.494 67.7112 193.393C67.7112 243.292 108.162 283.743 158.061 283.743Z" stroke="black" stroke-width="16" stroke-miterlimit="10" stroke-linecap="round" stroke-linejoin="round"/>
<path d="M158.061 283.743C207.96 283.743 248.411 243.292 248.411 193.393C248.411 143.494 207.96 103.043 158.061 103.043C108.162 103.043 67.7112 143.494 67.7112 193.393C67.7112 243.292 108.162 283.743 158.061 283.743Z" stroke="black" stroke-width="16" stroke-miterlimit="10" stroke-linecap="round" stroke-linejoin="round"/>
<path d="M86.1038 138.86C88.6045 135.633 91.2666 132.487 94.2514 129.502C129.504 94.2493 186.699 94.2493 222.032 129.502C229.05 136.52 234.617 144.345 238.811 152.735C188.796 135.633 136.361 134.342 86.1038 138.86Z" fill="black"/>
<path d="M202.107 234.05C220.819 234.05 235.988 218.88 235.988 200.168C235.988 181.456 220.819 166.287 202.107 166.287C183.395 166.287 168.226 181.456 168.226 200.168C168.226 218.88 183.395 234.05 202.107 234.05Z" fill="black"/>
<path d="M221.306 211.704C227.544 211.704 232.6 206.647 232.6 200.41C232.6 194.173 227.544 189.116 221.306 189.116C215.069 189.116 210.012 194.173 210.012 200.41C210.012 206.647 215.069 211.704 221.306 211.704Z" fill="white"/>
<path d="M208.964 426.204C201.865 426.204 196.056 420.396 196.056 413.297V398.776C196.056 391.677 201.865 385.869 208.964 385.869C216.062 385.869 221.871 391.677 221.871 398.776V413.297C221.871 420.396 216.143 426.204 208.964 426.204Z" fill="black"/>
<path d="M183.149 426.204C176.05 426.204 170.242 420.396 170.242 413.297V398.776C170.242 391.677 176.05 385.869 183.149 385.869C190.248 385.869 196.056 391.677 196.056 398.776V413.297C196.056 420.396 190.329 426.204 183.149 426.204Z" fill="black"/>
<path d="M234.616 426.204C227.517 426.204 221.709 420.396 221.709 413.297V398.776C221.709 391.677 227.517 385.869 234.616 385.869C241.715 385.869 247.524 391.677 247.524 398.776V413.297C247.524 420.396 241.715 426.204 234.616 426.204Z" fill="black"/>
<path d="M268.659 426.204C261.56 426.204 255.752 420.396 255.752 413.297V398.776C255.752 391.677 261.56 385.869 268.659 385.869C275.758 385.869 281.566 391.677 281.566 398.776V413.297C281.566 420.396 275.758 426.204 268.659 426.204Z" fill="black"/>
<path d="M294.312 426.204C287.213 426.204 281.405 420.396 281.405 413.297V398.776C281.405 391.677 287.213 385.869 294.312 385.869C301.411 385.869 307.219 391.677 307.219 398.776V413.297C307.219 420.396 301.411 426.204 294.312 426.204Z" fill="black"/>
<path d="M320.127 426.204C313.028 426.204 307.219 420.396 307.219 413.297V398.776C307.219 391.677 313.028 385.869 320.127 385.869C327.226 385.869 333.034 391.677 333.034 398.776V413.297C333.034 420.396 327.226 426.204 320.127 426.204Z" fill="black"/>
<path d="M244.458 320.769C244.458 327.545 238.973 333.03 232.196 333.03C225.42 333.03 219.935 327.545 219.935 320.769" stroke="black" stroke-width="8" stroke-miterlimit="10" stroke-linecap="round" stroke-linejoin="round"/>
<path d="M281.97 320.769C281.97 327.545 276.484 333.03 269.708 333.03C262.932 333.03 257.446 327.545 257.446 320.769" stroke="black" stroke-width="8" stroke-miterlimit="10" stroke-linecap="round" stroke-linejoin="round"/>
<path opacity="0.31" d="M108.207 289.469C106.432 293.26 101.996 294.954 98.1234 293.179C94.2512 291.405 92.6378 286.968 94.4126 283.096" stroke="#72C8D6" stroke-width="8" stroke-miterlimit="10" stroke-linecap="round" stroke-linejoin="round"/>
<path opacity="0.31" d="M132.247 301.972C130.472 305.764 126.035 307.458 122.163 305.683C118.372 303.909 116.678 299.472 118.452 295.6" stroke="#72C8D6" stroke-width="8" stroke-miterlimit="10" stroke-linecap="round" stroke-linejoin="round"/>
<path opacity="0.31" d="M118.291 311.573C116.516 315.365 112.079 317.059 108.207 315.284C104.416 313.509 102.722 309.072 104.496 305.2" stroke="#72C8D6" stroke-width="8" stroke-miterlimit="10" stroke-linecap="round" stroke-linejoin="round"/>
<path opacity="0.31" d="M139.426 327.626C137.652 331.417 133.215 333.111 129.343 331.337C125.551 329.562 123.857 325.125 125.632 321.253" stroke="#72C8D6" stroke-width="8" stroke-miterlimit="10" stroke-linecap="round" stroke-linejoin="round"/>
<path opacity="0.31" d="M155.56 313.104C153.785 316.896 149.348 318.59 145.476 316.815C141.685 315.04 139.991 310.604 141.765 306.731" stroke="#72C8D6" stroke-width="8" stroke-miterlimit="10" stroke-linecap="round" stroke-linejoin="round"/>
<path opacity="0.31" d="M399.183 291.083C400.958 294.874 405.394 296.568 409.267 294.794C413.139 293.019 414.752 288.582 412.977 284.71" stroke="#72C8D6" stroke-width="8" stroke-miterlimit="10" stroke-linecap="round" stroke-linejoin="round"/>
<path opacity="0.31" d="M375.224 303.586C376.999 307.377 381.435 309.071 385.308 307.297C389.099 305.522 390.793 301.085 389.018 297.213" stroke="#72C8D6" stroke-width="8" stroke-miterlimit="10" stroke-linecap="round" stroke-linejoin="round"/>
<path opacity="0.31" d="M389.099 313.184C390.874 316.976 395.31 318.67 399.183 316.895C402.974 315.121 404.668 310.684 402.893 306.812" stroke="#72C8D6" stroke-width="8" stroke-miterlimit="10" stroke-linecap="round" stroke-linejoin="round"/>
<path opacity="0.31" d="M368.044 329.239C369.819 333.031 374.256 334.725 378.128 332.95C381.919 331.175 383.613 326.738 381.839 322.866" stroke="#72C8D6" stroke-width="8" stroke-miterlimit="10" stroke-linecap="round" stroke-linejoin="round"/>
<path opacity="0.31" d="M351.91 314.718C353.685 318.509 358.121 320.203 361.994 318.428C365.785 316.654 367.479 312.217 365.704 308.345" stroke="#72C8D6" stroke-width="8" stroke-miterlimit="10" stroke-linecap="round" stroke-linejoin="round"/>
<path d="M225.743 350.213C225.743 356.989 220.257 362.475 213.481 362.475C206.705 362.475 201.219 356.989 201.219 350.213" stroke="black" stroke-width="8" stroke-miterlimit="10" stroke-linecap="round" stroke-linejoin="round"/>
<path d="M263.254 350.213C263.254 356.989 257.769 362.475 250.993 362.475C244.216 362.475 238.731 356.989 238.731 350.213" stroke="black" stroke-width="8" stroke-miterlimit="10" stroke-linecap="round" stroke-linejoin="round"/>
<path d="M300.766 350.213C300.766 356.989 295.28 362.475 288.504 362.475C281.728 362.475 276.242 356.989 276.242 350.213" stroke="black" stroke-width="8" stroke-miterlimit="10" stroke-linecap="round" stroke-linejoin="round"/>
</svg>
